<?xml version="1.0" standalone="no"?>
<!DOCTYPE svg PUBLIC "-//W3C//DTD SVG 1.1//EN" "http://www.w3.org/Graphics/SVG/1.1/DTD/svg11.dtd">
<svg width="800" height="600" version="1.1" xmlns="http://www.w3.org/2000/svg">
<rect width="800" height="600" x="0" y="0" style="fill:rgb(238,238,238);stroke:none"/>
<rect width="800" height="600" x="0" y="0" style="fill:rgb(255,255,255);stroke:none"/>
<text x="2" y="566" fill="rgb(0,0,0)" font-family="Arial" font-size="12">0</text>
<text x="2" y="484" fill="rgb(0,0,0)" font-family="Arial" font-size="12">100000</text>
<text x="2" y="402" fill="rgb(0,0,0)" font-family="Arial" font-size="12">200000</text>
<text x="2" y="320" fill="rgb(0,0,0)" font-family="Arial" font-size="12">300000</text>
<text x="2" y="238" fill="rgb(0,0,0)" font-family="Arial" font-size="12">400000</text>
<text x="2" y="155" fill="rgb(0,0,0)" font-family="Arial" font-size="12">500000</text>
<text x="2" y="73" fill="rgb(0,0,0)" font-family="Arial" font-size="12">600000</text>
<text x="294" y="30" fill="rgb(0,0,0)" font-family="Arial" font-size="12">Quality score distribution over all sequences</text>
<line x1="53" y1="560" x2="790" y2="560" stroke="rgb(0,0,0)" stroke-width="1"/>
<line x1="53" y1="560" x2="53" y2="40" stroke="rgb(0,0,0)" stroke-width="1"/>
<text x="293" y="595" fill="rgb(0,0,0)" font-family="Arial" font-size="12">Mean Sequence Quality (Phred Score)</text>
<text x="58" y="575" fill="rgb(0,0,0)" font-family="Arial" font-size="12">0</text>
<rect width="18" height="520" x="71" y="40" style="fill:rgb(230,230,230);stroke:none"/>
<text x="76" y="575" fill="rgb(0,0,0)" font-family="Arial" font-size="12">1</text>
<text x="94" y="575" fill="rgb(0,0,0)" font-family="Arial" font-size="12">2</text>
<rect width="18" height="520" x="107" y="40" style="fill:rgb(230,230,230);stroke:none"/>
<text x="112" y="575" fill="rgb(0,0,0)" font-family="Arial" font-size="12">3</text>
<text x="130" y="575" fill="rgb(0,0,0)" font-family="Arial" font-size="12">4</text>
<rect width="18" height="520" x="143" y="40" style="fill:rgb(230,230,230);stroke:none"/>
<text x="148" y="575" fill="rgb(0,0,0)" font-family="Arial" font-size="12">5</text>
<text x="166" y="575" fill="rgb(0,0,0)" font-family="Arial" font-size="12">6</text>
<rect width="18" height="520" x="179" y="40" style="fill:rgb(230,230,230);stroke:none"/>
<text x="184" y="575" fill="rgb(0,0,0)" font-family="Arial" font-size="12">7</text>
<text x="202" y="575" fill="rgb(0,0,0)" font-family="Arial" font-size="12">8</text>
<rect width="18" height="520" x="215" y="40" style="fill:rgb(230,230,230);stroke:none"/>
<text x="220" y="575" fill="rgb(0,0,0)" font-family="Arial" font-size="12">9</text>
<text x="234" y="575" fill="rgb(0,0,0)" font-family="Arial" font-size="12">10</text>
<rect width="18" height="520" x="251" y="40" style="fill:rgb(230,230,230);stroke:none"/>
<text x="270" y="575" fill="rgb(0,0,0)" font-family="Arial" font-size="12">12</text>
<rect width="18" height="520" x="287" y="40" style="fill:rgb(230,230,230);stroke:none"/>
<text x="306" y="575" fill="rgb(0,0,0)" font-family="Arial" font-size="12">14</text>
<rect width="18" height="520" x="323" y="40" style="fill:rgb(230,230,230);stroke:none"/>
<text x="342" y="575" fill="rgb(0,0,0)" font-family="Arial" font-size="12">16</text>
<rect width="18" height="520" x="359" y="40" style="fill:rgb(230,230,230);stroke:none"/>
<text x="378" y="575" fill="rgb(0,0,0)" font-family="Arial" font-size="12">18</text>
<rect width="18" height="520" x="395" y="40" style="fill:rgb(230,230,230);stroke:none"/>
<text x="414" y="575" fill="rgb(0,0,0)" font-family="Arial" font-size="12">20</text>
<rect width="18" height="520" x="431" y="40" style="fill:rgb(230,230,230);stroke:none"/>
<text x="450" y="575" fill="rgb(0,0,0)" font-family="Arial" font-size="12">22</text>
<rect width="18" height="520" x="467" y="40" style="fill:rgb(230,230,230);stroke:none"/>
<text x="486" y="575" fill="rgb(0,0,0)" font-family="Arial" font-size="12">24</text>
<rect width="18" height="520" x="503" y="40" style="fill:rgb(230,230,230);stroke:none"/>
<text x="522" y="575" fill="rgb(0,0,0)" font-family="Arial" font-size="12">26</text>
<rect width="18" height="520" x="539" y="40" style="fill:rgb(230,230,230);stroke:none"/>
<text x="558" y="575" fill="rgb(0,0,0)" font-family="Arial" font-size="12">28</text>
<rect width="18" height="520" x="575" y="40" style="fill:rgb(230,230,230);stroke:none"/>
<text x="594" y="575" fill="rgb(0,0,0)" font-family="Arial" font-size="12">30</text>
<rect width="18" height="520" x="611" y="40" style="fill:rgb(230,230,230);stroke:none"/>
<text x="630" y="575" fill="rgb(0,0,0)" font-family="Arial" font-size="12">32</text>
<rect width="18" height="520" x="647" y="40" style="fill:rgb(230,230,230);stroke:none"/>
<text x="666" y="575" fill="rgb(0,0,0)" font-family="Arial" font-size="12">34</text>
<rect width="18" height="520" x="683" y="40" style="fill:rgb(230,230,230);stroke:none"/>
<text x="702" y="575" fill="rgb(0,0,0)" font-family="Arial" font-size="12">36</text>
<rect width="18" height="520" x="719" y="40" style="fill:rgb(230,230,230);stroke:none"/>
<text x="738" y="575" fill="rgb(0,0,0)" font-family="Arial" font-size="12">38</text>
<rect width="18" height="520" x="755" y="40" style="fill:rgb(230,230,230);stroke:none"/>
<line x1="53" y1="560" x2="790" y2="560" stroke="rgb(180,180,180)" stroke-width="1"/>
<line x1="53" y1="478" x2="790" y2="478" stroke="rgb(180,180,180)" stroke-width="1"/>
<line x1="53" y1="396" x2="790" y2="396" stroke="rgb(180,180,180)" stroke-width="1"/>
<line x1="53" y1="314" x2="790" y2="314" stroke="rgb(180,180,180)" stroke-width="1"/>
<line x1="53" y1="232" x2="790" y2="232" stroke="rgb(180,180,180)" stroke-width="1"/>
<line x1="53" y1="149" x2="790" y2="149" stroke="rgb(180,180,180)" stroke-width="1"/>
<line x1="53" y1="67" x2="790" y2="67" stroke="rgb(180,180,180)" stroke-width="1"/>
<line x1="62" y1="560" x2="80" y2="560" stroke="rgb(136,34,85)" stroke-width="1"/>
<line x1="80" y1="560" x2="98" y2="560" stroke="rgb(136,34,85)" stroke-width="1"/>
<line x1="98" y1="560" x2="116" y2="560" stroke="rgb(136,34,85)" stroke-width="1"/>
<line x1="116" y1="560" x2="134" y2="560" stroke="rgb(136,34,85)" stroke-width="1"/>
<line x1="134" y1="560" x2="152" y2="560" stroke="rgb(136,34,85)" stroke-width="1"/>
<line x1="152" y1="560" x2="170" y2="560" stroke="rgb(136,34,85)" stroke-width="1"/>
<line x1="170" y1="560" x2="188" y2="560" stroke="rgb(136,34,85)" stroke-width="1"/>
<line x1="188" y1="560" x2="206" y2="559" stroke="rgb(136,34,85)" stroke-width="1"/>
<line x1="206" y1="559" x2="224" y2="559" stroke="rgb(136,34,85)" stroke-width="1"/>
<line x1="224" y1="559" x2="242" y2="558" stroke="rgb(136,34,85)" stroke-width="1"/>
<line x1="242" y1="558" x2="260" y2="558" stroke="rgb(136,34,85)" stroke-width="1"/>
<line x1="260" y1="558" x2="278" y2="558" stroke="rgb(136,34,85)" stroke-width="1"/>
<line x1="278" y1="558" x2="296" y2="558" stroke="rgb(136,34,85)" stroke-width="1"/>
<line x1="296" y1="558" x2="314" y2="557" stroke="rgb(136,34,85)" stroke-width="1"/>
<line x1="314" y1="557" x2="332" y2="557" stroke="rgb(136,34,85)" stroke-width="1"/>
<line x1="332" y1="557" x2="350" y2="556" stroke="rgb(136,34,85)" stroke-width="1"/>
<line x1="350" y1="556" x2="368" y2="556" stroke="rgb(136,34,85)" stroke-width="1"/>
<line x1="368" y1="556" x2="386" y2="555" stroke="rgb(136,34,85)" stroke-width="1"/>
<line x1="386" y1="555" x2="404" y2="554" stroke="rgb(136,34,85)" stroke-width="1"/>
<line x1="404" y1="554" x2="422" y2="554" stroke="rgb(136,34,85)" stroke-width="1"/>
<line x1="422" y1="554" x2="440" y2="552" stroke="rgb(136,34,85)" stroke-width="1"/>
<line x1="440" y1="552" x2="458" y2="552" stroke="rgb(136,34,85)" stroke-width="1"/>
<line x1="458" y1="552" x2="476" y2="550" stroke="rgb(136,34,85)" stroke-width="1"/>
<line x1="476" y1="550" x2="494" y2="549" stroke="rgb(136,34,85)" stroke-width="1"/>
<line x1="494" y1="549" x2="512" y2="547" stroke="rgb(136,34,85)" stroke-width="1"/>
<line x1="512" y1="547" x2="530" y2="546" stroke="rgb(136,34,85)" stroke-width="1"/>
<line x1="530" y1="546" x2="548" y2="543" stroke="rgb(136,34,85)" stroke-width="1"/>
<line x1="548" y1="543" x2="566" y2="540" stroke="rgb(136,34,85)" stroke-width="1"/>
<line x1="566" y1="540" x2="584" y2="536" stroke="rgb(136,34,85)" stroke-width="1"/>
<line x1="584" y1="536" x2="602" y2="533" stroke="rgb(136,34,85)" stroke-width="1"/>
<line x1="602" y1="533" x2="620" y2="527" stroke="rgb(136,34,85)" stroke-width="1"/>
<line x1="620" y1="527" x2="638" y2="520" stroke="rgb(136,34,85)" stroke-width="1"/>
<line x1="638" y1="520" x2="656" y2="508" stroke="rgb(136,34,85)" stroke-width="1"/>
<line x1="656" y1="508" x2="674" y2="490" stroke="rgb(136,34,85)" stroke-width="1"/>
<line x1="674" y1="490" x2="692" y2="458" stroke="rgb(136,34,85)" stroke-width="1"/>
<line x1="692" y1="458" x2="710" y2="400" stroke="rgb(136,34,85)" stroke-width="1"/>
<line x1="710" y1="400" x2="728" y2="285" stroke="rgb(136,34,85)" stroke-width="1"/>
<line x1="728" y1="285" x2="746" y2="40" stroke="rgb(136,34,85)" stroke-width="1"/>
<line x1="746" y1="40" x2="764" y2="132" stroke="rgb(136,34,85)" stroke-width="1"/>
<rect width="160" height="23" x="630" y="40" style="fill:rgb(255,255,255);stroke:none"/>
<rect width="160" height="23" x="630" y="40" rx="0" ry="0" style="fill:none;stroke-width:1;stroke:rgb(192,192,192)"/>
<text x="633" y="55" fill="rgb(136,34,85)" font-family="Arial" font-size="12" font-weight="bold">Average Quality per read</text>
</svg>
